<svg width="24" height="24" viewBox="0 0 24 24" fill="none" xmlns="http://www.w3.org/2000/svg">
<path d="M19.8001 3H5.40007C4.74007 3 4.20007 3.54 4.20007 4.2L4.20007 19.8C4.20007 20.46 4.74007 21 5.40007 21H19.8001C20.4601 21 21.0001 20.46 21.0001 19.8V4.2C21.0001 3.54 20.4601 3 19.8001 3ZM13.8001 15V13.8C13.8001 13.14 14.3401 12.6 15.0001 12.6C15.6601 12.6 16.2001 13.14 16.2001 13.8V15H18.0001C18.3361 15 18.6001 15.264 18.6001 15.6C18.6001 15.936 18.3361 16.2 18.0001 16.2H16.2001V17.4C16.2001 18.06 15.6601 18.6 15.0001 18.6C14.3401 18.6 13.8001 18.06 13.8001 17.4V16.2H7.20007C6.86407 16.2 6.60007 15.936 6.60007 15.6C6.60007 15.264 6.86407 15 7.20007 15H13.8001ZM11.4001 9V10.2C11.4001 10.86 10.8601 11.4 10.2001 11.4C9.54007 11.4 9.00007 10.86 9.00007 10.2V9H7.20007C6.86407 9 6.60007 8.736 6.60007 8.4C6.60007 8.064 6.86407 7.8 7.20007 7.8H9.00007V6.6C9.00007 5.94 9.54007 5.4 10.2001 5.4C10.8601 5.4 11.4001 5.94 11.4001 6.6V7.8H18.0001C18.3361 7.8 18.6001 8.064 18.6001 8.4C18.6001 8.736 18.3361 9 18.0001 9H11.4001Z" fill="#BDBDBD"/>
</svg>
