<svg width="24" height="24" viewBox="0 0 24 24" fill="none" xmlns="http://www.w3.org/2000/svg">
<path d="M21.7573 10.324L12.7508 0.31673C12.3715 -0.105577 11.643 -0.105577 11.2637 0.31673L2.25717 10.324C2.12753 10.4677 2.04244 10.646 2.01224 10.8371C1.98203 11.0283 2.00802 11.2241 2.08705 11.4008C2.24716 11.762 2.60542 11.9942 3.00071 11.9942H5.00216V18.9993C5.00216 19.2647 5.10759 19.5192 5.29527 19.7069C5.48294 19.8946 5.73748 20 6.00289 20H9.00506C9.27047 20 9.52501 19.8946 9.71268 19.7069C9.90035 19.5192 10.0058 19.2647 10.0058 18.9993V14.9964H14.0087V18.9993C14.0087 19.2647 14.1141 19.5192 14.3018 19.7069C14.4895 19.8946 14.744 20 15.0094 20H18.0116C18.277 20 18.5315 19.8946 18.7192 19.7069C18.9069 19.5192 19.0123 19.2647 19.0123 18.9993V11.9942H21.0138C21.2076 11.995 21.3974 11.9394 21.5602 11.8342C21.723 11.729 21.8516 11.5787 21.9304 11.4017C22.0092 11.2246 22.0348 11.0284 22.0041 10.8371C21.9734 10.6457 21.8876 10.4674 21.7573 10.324Z" fill="#BDBDBD"/>
</svg>
