<svg width="24" height="24" viewBox="0 0 24 24" fill="none" xmlns="http://www.w3.org/2000/svg">
<path d="M19.8002 3.00012H5.4002C4.7402 3.00012 4.2002 3.54012 4.2002 4.20012L4.2002 19.8001C4.2002 20.4601 4.7402 21.0001 5.4002 21.0001H19.8002C20.4602 21.0001 21.0002 20.4601 21.0002 19.8001V4.20012C21.0002 3.54012 20.4602 3.00012 19.8002 3.00012ZM13.8002 15.0001V13.8001C13.8002 13.1401 14.3402 12.6001 15.0002 12.6001C15.6602 12.6001 16.2002 13.1401 16.2002 13.8001V15.0001H18.0002C18.3362 15.0001 18.6002 15.2641 18.6002 15.6001C18.6002 15.9361 18.3362 16.2001 18.0002 16.2001H16.2002V17.4001C16.2002 18.0601 15.6602 18.6001 15.0002 18.6001C14.3402 18.6001 13.8002 18.0601 13.8002 17.4001V16.2001H7.2002C6.8642 16.2001 6.6002 15.9361 6.6002 15.6001C6.6002 15.2641 6.8642 15.0001 7.2002 15.0001H13.8002ZM11.4002 9.00012V10.2001C11.4002 10.8601 10.8602 11.4001 10.2002 11.4001C9.54019 11.4001 9.0002 10.8601 9.0002 10.2001V9.00012H7.2002C6.8642 9.00012 6.6002 8.73612 6.6002 8.40012C6.6002 8.06412 6.8642 7.80012 7.2002 7.80012H9.0002V6.60012C9.0002 5.94012 9.54019 5.40012 10.2002 5.40012C10.8602 5.40012 11.4002 5.94012 11.4002 6.60012V7.80012H18.0002C18.3362 7.80012 18.6002 8.06412 18.6002 8.40012C18.6002 8.73612 18.3362 9.00012 18.0002 9.00012H11.4002Z" fill="#F6DF06"/>
</svg>
