<svg width="24" height="24" viewBox="0 0 24 24" fill="none" xmlns="http://www.w3.org/2000/svg">
<g clip-path="url(#clip0_0_176)">
<path d="M16.5933 17.3334H21.8333C21.3933 11.5267 18.8933 7.92008 15.6866 5.78675L17.1466 2.60008C17.1908 2.49896 17.2091 2.38847 17.2 2.27852C17.191 2.16856 17.1547 2.06258 17.0946 1.97007C17.0345 1.87757 16.9523 1.80143 16.8555 1.74849C16.7587 1.69555 16.6503 1.66747 16.54 1.66675H7.39997C7.28964 1.66747 7.18122 1.69555 7.08442 1.74849C6.98762 1.80143 6.90547 1.87757 6.84535 1.97007C6.78522 2.06258 6.74899 2.16856 6.7399 2.27852C6.73082 2.38847 6.74917 2.49896 6.7933 2.60008L7.5933 4.33341H14.34L13.74 5.66675H12.5066C12.8833 6.67958 13.1602 7.72677 13.3333 8.79341C13.4455 9.45506 13.5167 10.123 13.5466 10.7934L12.4933 11.5334C12.4962 10.6711 12.4248 9.81015 12.28 8.96008C12.0958 7.82873 11.778 6.72323 11.3333 5.66675H10.6666C10.0514 6.44412 9.49856 7.26891 9.0133 8.13341C8.62204 8.87498 8.2899 9.64626 8.01997 10.4401L7.10664 9.83341C7.37323 9.06618 7.70095 8.32157 8.08664 7.60675C8.47635 6.93644 8.9037 6.28874 9.36664 5.66675H8.19997L8.2533 5.78008C4.71997 8.13341 2.0333 12.2667 2.0333 19.1667C2.0243 19.3118 2.04412 19.4572 2.09162 19.5945C2.13913 19.7319 2.21337 19.8584 2.31008 19.9669C2.40678 20.0754 2.52401 20.1636 2.65501 20.2265C2.78602 20.2894 2.92818 20.3258 3.0733 20.3334H8.40664C8.17763 20.0951 8.01951 19.7977 7.94999 19.4745C7.88047 19.1514 7.9023 18.8153 8.01303 18.5038C8.12376 18.1924 8.31903 17.918 8.57694 17.7112C8.83485 17.5045 9.14523 17.3737 9.4733 17.3334C9.31364 17.0626 9.22854 16.7544 9.22664 16.4401C9.22664 15.9627 9.41628 15.5049 9.75385 15.1673C10.0914 14.8297 10.5492 14.6401 11.0266 14.6401H15.0266C15.504 14.6401 15.9619 14.8297 16.2994 15.1673C16.637 15.5049 16.8266 15.9627 16.8266 16.4401C16.8301 16.7534 16.7495 17.0618 16.5933 17.3334Z" fill="#FCFCFC"/>
<path d="M14.4 18.9999C14.4 18.8231 14.3297 18.6535 14.2047 18.5285C14.0797 18.4035 13.9101 18.3333 13.7333 18.3333H9.73332C9.55651 18.3333 9.38694 18.4035 9.26191 18.5285C9.13689 18.6535 9.06665 18.8231 9.06665 18.9999C9.06665 19.1767 9.13689 19.3463 9.26191 19.4713C9.38694 19.5963 9.55651 19.6666 9.73332 19.6666H13.7333C13.9101 19.6666 14.0797 19.5963 14.2047 19.4713C14.3297 19.3463 14.4 19.1767 14.4 18.9999Z" fill="#FCFCFC"/>
<path d="M15.0267 15.6667H11.0267C10.8498 15.6667 10.6803 15.737 10.5552 15.862C10.4302 15.987 10.36 16.1566 10.36 16.3334C10.36 16.5102 10.4302 16.6798 10.5552 16.8048C10.6803 16.9298 10.8498 17.0001 11.0267 17.0001H15.0267C15.2035 17.0001 15.373 16.9298 15.4981 16.8048C15.6231 16.6798 15.6933 16.5102 15.6933 16.3334C15.6933 16.1566 15.6231 15.987 15.4981 15.862C15.373 15.737 15.2035 15.6667 15.0267 15.6667Z" fill="#FCFCFC"/>
<path d="M14.6667 21H10.6667C10.4899 21 10.3203 21.0702 10.1953 21.1953C10.0702 21.3203 10 21.4899 10 21.6667C10 21.8435 10.0702 22.013 10.1953 22.1381C10.3203 22.2631 10.4899 22.3333 10.6667 22.3333H14.6667C14.8435 22.3333 15.013 22.2631 15.1381 22.1381C15.2631 22.013 15.3333 21.8435 15.3333 21.6667C15.3333 21.4899 15.2631 21.3203 15.1381 21.1953C15.013 21.0702 14.8435 21 14.6667 21Z" fill="#FCFCFC"/>
<path d="M21.8 21H17.1333C16.9565 21 16.787 21.0702 16.6619 21.1953C16.5369 21.3203 16.4667 21.4899 16.4667 21.6667C16.4667 21.8435 16.5369 22.013 16.6619 22.1381C16.787 22.2631 16.9565 22.3333 17.1333 22.3333H21.8C21.9768 22.3333 22.1464 22.2631 22.2714 22.1381C22.3964 22.013 22.4667 21.8435 22.4667 21.6667C22.4667 21.4899 22.3964 21.3203 22.2714 21.1953C22.1464 21.0702 21.9768 21 21.8 21Z" fill="#FCFCFC"/>
<path d="M22.4667 18.3333H17.8C17.6232 18.3333 17.4536 18.4035 17.3286 18.5285C17.2036 18.6535 17.1334 18.8231 17.1334 18.9999C17.1334 19.1767 17.2036 19.3463 17.3286 19.4713C17.4536 19.5963 17.6232 19.6666 17.8 19.6666H22.4667C22.6435 19.6666 22.8131 19.5963 22.9381 19.4713C23.0631 19.3463 23.1334 19.1767 23.1334 18.9999C23.1334 18.8231 23.0631 18.6535 22.9381 18.5285C22.8131 18.4035 22.6435 18.3333 22.4667 18.3333Z" fill="#FCFCFC"/>
</g>
<defs>
<clipPath id="clip0_0_176">
<rect width="24" height="24" fill="white"/>
</clipPath>
</defs>
</svg>
