<svg width="24" height="24" viewBox="0 0 24 24" fill="none" xmlns="http://www.w3.org/2000/svg">
<path fill-rule="evenodd" clip-rule="evenodd" d="M3.17851 6.00002L4.50001 7.32152L3.57151 8.25002L1.07251 5.74952V4.82252L3.57001 2.32202L4.50001 3.25052L3.25051 4.50002H22.5V6.00002H3.17851ZM6.00001 21.819V8.18252L6.75001 7.50002H9.75001L10.5 8.18252V21.8175L9.75001 22.5H6.75001L6.00001 21.819ZM12 18.834V8.16602L12.75 7.50002H15.75L16.5 8.16602V18.834L15.75 19.5H12.75L12 18.834ZM18 8.14352V15.858L18.75 16.5H21.75L22.5 15.858V8.14352L21.75 7.50002H18.75L18 8.14352Z" fill="#FCFCFC"/>
</svg>
