<svg width="24" height="24" viewBox="0 0 24 24" fill="none" xmlns="http://www.w3.org/2000/svg">
<g clip-path="url(#clip0_0_153)">
<path d="M13.8 1.80005L7.20001 6.60005V9.00005H9.00001L18.6 12.42V15H20.4V6.60005L13.8 1.80005ZM13.344 9.90005H12.444V9.00005H13.344V9.90005ZM13.344 8.10005H12.444V7.20005H13.344V8.10005ZM15.144 9.90005H14.244V9.00005H15.144V9.90005ZM15.144 8.10005H14.244V7.20005H15.144V8.10005ZM1.20001 21.6H4.80001V10.8H1.20001V21.6ZM12.6 16.8L10.764 16.188L11.196 14.976L12.6 15.6H16.8V13.8L8.40001 10.8H6.60001V19.632L13.8 21.6L21.6 18.6V16.8H12.6Z" fill="#FCFCFC"/>
</g>
<defs>
<clipPath id="clip0_0_153">
<rect width="24" height="24" fill="white"/>
</clipPath>
</defs>
</svg>
